<svg width="218" height="222" viewBox="0 0 218 222" fill="none" xmlns="http://www.w3.org/2000/svg">
<path d="M12 55.9587V166.959L108.5 222L205 166.959V55.9587L108.5 0L12 55.9587Z" fill="url(#paint0_linear_2320_17)"/>
<path d="M111.023 36.2361L107.985 31.0298L104.969 36.249L42.2786 144.749L39.2446 150H45.3091H171.309H177.404L174.332 144.736L111.023 36.2361Z" fill="url(#paint1_radial_2320_17)" stroke="url(#paint2_radial_2320_17)" stroke-width="7"/>
<path d="M26.0395 60.7029L24.3091 61.717L24.3092 63.7226L24.3095 129L24.3095 142.098L30.8429 130.746L87.5335 32.2459L94.1166 20.8076L82.7304 27.4803L26.0395 60.7029Z" fill="url(#paint3_linear_2320_17)" stroke="url(#paint4_radial_2320_17)" stroke-width="7"/>
<path d="M192.309 62.4998L192.309 60.461L190.536 59.4553L133.227 26.9555L121.913 20.5398L128.479 31.7668L185.788 129.767L192.309 140.918L192.309 128L192.309 62.4998Z" fill="url(#paint5_linear_2320_17)" stroke="url(#paint6_radial_2320_17)" stroke-width="7"/>
<path d="M106.5 206.996L108.309 208.088L110.118 206.996L165.618 173.496L176.381 167H163.809H52.8091H40.2376L51.0004 173.496L106.5 206.996Z" fill="url(#paint7_linear_2320_17)" stroke="url(#paint8_radial_2320_17)" stroke-width="7"/>
<defs>
<linearGradient id="paint0_linear_2320_17" x1="108.5" y1="0" x2="108.5" y2="222" gradientUnits="userSpaceOnUse">
<stop stop-color="#030303"/>
<stop offset="1" stop-color="#696969"/>
</linearGradient>
<radialGradient id="paint1_radial_2320_17" cx="0" cy="0" r="1" gradientUnits="userSpaceOnUse" gradientTransform="translate(108 110) rotate(88.1118) scale(91.0494 105.735)">
<stop stop-color="#8F83FF"/>
<stop offset="1" stop-color="#564F99"/>
</radialGradient>
<radialGradient id="paint2_radial_2320_17" cx="0" cy="0" r="1" gradientUnits="userSpaceOnUse" gradientTransform="translate(108.309 92.25) rotate(90) scale(54.25 63)">
<stop stop-color="white"/>
<stop offset="1" stop-color="#999999"/>
</radialGradient>
<linearGradient id="paint3_linear_2320_17" x1="70.1765" y1="22.3162" x2="14.6332" y2="121.631" gradientUnits="userSpaceOnUse">
<stop offset="0.5" stop-color="#5ED7B9"/>
<stop offset="1" stop-color="#327161"/>
</linearGradient>
<radialGradient id="paint4_radial_2320_17" cx="0" cy="0" r="1" gradientUnits="userSpaceOnUse" gradientTransform="translate(42.4049 71.9735) rotate(29.2168) scale(16.7662 56.8957)">
<stop stop-color="white"/>
<stop offset="1" stop-color="#999999"/>
</radialGradient>
<linearGradient id="paint5_linear_2320_17" x1="145.888" y1="23.7566" x2="203.166" y2="120.5" gradientUnits="userSpaceOnUse">
<stop offset="0.5" stop-color="#D7E475"/>
<stop offset="1" stop-color="#777E41"/>
</linearGradient>
<radialGradient id="paint6_radial_2320_17" cx="0" cy="0" r="1" gradientUnits="userSpaceOnUse" gradientTransform="translate(174.527 72.1281) rotate(149.371) scale(16.6853 56.214)">
<stop stop-color="white"/>
<stop offset="1" stop-color="#999999"/>
</radialGradient>
<linearGradient id="paint7_linear_2320_17" x1="52.8091" y1="187.25" x2="163.809" y2="187.25" gradientUnits="userSpaceOnUse">
<stop offset="0.5" stop-color="#FF5959"/>
<stop offset="1" stop-color="#993636"/>
</linearGradient>
<radialGradient id="paint8_radial_2320_17" cx="0" cy="0" r="1" gradientUnits="userSpaceOnUse" gradientTransform="translate(108.309 187.25) rotate(-90) scale(16.75 55.5)">
<stop stop-color="white"/>
<stop offset="1" stop-color="#999999"/>
</radialGradient>
</defs>
</svg>
